<svg width="746" height="83" viewBox="0 0 746 83" fill="none" xmlns="http://www.w3.org/2000/svg">
<rect x="0.5" y="1.03516" width="745" height="81" rx="1.5" fill="white"/>
<rect x="646" y="25.5352" width="75" height="32" rx="3" fill="#091E42" fill-opacity="0.04"/>
<path d="M664.477 46.5352L662.391 42.6152H661.159V46.5352H659.465V36.6092H663.273C664.207 36.6092 664.958 36.8985 665.527 37.4772C666.097 38.0465 666.381 38.7605 666.381 39.6192C666.381 40.3285 666.181 40.9352 665.779 41.4392C665.378 41.9432 664.832 42.2792 664.141 42.4472L666.381 46.5352H664.477ZM661.159 41.1312H662.965C663.479 41.1312 663.889 40.9958 664.197 40.7252C664.515 40.4452 664.673 40.0765 664.673 39.6192C664.673 39.1525 664.515 38.7838 664.197 38.5132C663.889 38.2332 663.479 38.0932 662.965 38.0932H661.159V41.1312ZM668.936 42.3772H672.282C672.263 41.9478 672.109 41.5885 671.82 41.2992C671.54 41.0098 671.134 40.8652 670.602 40.8652C670.117 40.8652 669.725 41.0192 669.426 41.3272C669.127 41.6258 668.964 41.9758 668.936 42.3772ZM672.464 44.1552L673.836 44.5892C673.64 45.2145 673.271 45.7325 672.73 46.1432C672.198 46.5445 671.54 46.7452 670.756 46.7452C669.785 46.7452 668.959 46.4138 668.278 45.7512C667.606 45.0885 667.27 44.2018 667.27 43.0912C667.27 42.0458 667.597 41.1872 668.25 40.5152C668.913 39.8432 669.692 39.5072 670.588 39.5072C671.633 39.5072 672.45 39.8292 673.038 40.4732C673.626 41.1078 673.92 41.9665 673.92 43.0492C673.92 43.3385 673.906 43.5112 673.878 43.5672H668.894C668.913 44.0805 669.099 44.5052 669.454 44.8412C669.818 45.1772 670.252 45.3452 670.756 45.3452C671.633 45.3452 672.203 44.9485 672.464 44.1552ZM674.87 44.6872L676.284 44.2952C676.312 44.6218 676.447 44.8972 676.69 45.1212C676.933 45.3452 677.259 45.4572 677.67 45.4572C677.987 45.4572 678.235 45.3825 678.412 45.2332C678.599 45.0838 678.692 44.8972 678.692 44.6732C678.692 44.2812 678.426 44.0292 677.894 43.9172L676.886 43.6932C676.298 43.5625 675.845 43.3198 675.528 42.9652C675.211 42.6105 675.052 42.1905 675.052 41.7052C675.052 41.1078 675.295 40.5945 675.78 40.1652C676.265 39.7265 676.858 39.5072 677.558 39.5072C678.006 39.5072 678.403 39.5725 678.748 39.7032C679.093 39.8338 679.359 40.0065 679.546 40.2212C679.742 40.4265 679.891 40.6272 679.994 40.8232C680.097 41.0192 680.162 41.2152 680.19 41.4112L678.818 41.8032C678.781 41.5418 678.659 41.3085 678.454 41.1032C678.258 40.8885 677.959 40.7812 677.558 40.7812C677.278 40.7812 677.045 40.8605 676.858 41.0192C676.671 41.1685 676.578 41.3505 676.578 41.5652C676.578 41.9478 676.807 42.1858 677.264 42.2792L678.3 42.4892C678.935 42.6292 679.42 42.8812 679.756 43.2452C680.092 43.6092 680.26 44.0478 680.26 44.5612C680.26 45.1305 680.031 45.6392 679.574 46.0872C679.126 46.5258 678.496 46.7452 677.684 46.7452C677.217 46.7452 676.797 46.6752 676.424 46.5352C676.06 46.3952 675.771 46.2178 675.556 46.0032C675.351 45.7792 675.187 45.5598 675.066 45.3452C674.954 45.1212 674.889 44.9018 674.87 44.6872ZM686.24 45.7792C686.081 46.0778 685.82 46.3112 685.456 46.4792C685.101 46.6472 684.719 46.7312 684.308 46.7312C683.515 46.7312 682.885 46.4745 682.418 45.9612C681.961 45.4478 681.732 44.7992 681.732 44.0152V39.7172H683.356V43.7212C683.356 44.1785 683.468 44.5518 683.692 44.8412C683.916 45.1305 684.261 45.2752 684.728 45.2752C685.185 45.2752 685.535 45.1352 685.778 44.8552C686.03 44.5752 686.156 44.2065 686.156 43.7492V39.7172H687.78V45.2892C687.78 45.6998 687.803 46.1152 687.85 46.5352H686.296C686.259 46.3298 686.24 46.0778 686.24 45.7792ZM691.492 46.5352H689.882V39.7172H691.436V40.5852C691.623 40.2492 691.903 39.9878 692.276 39.8012C692.659 39.6145 693.051 39.5212 693.452 39.5212C693.909 39.5212 694.32 39.6238 694.684 39.8292C695.048 40.0345 695.319 40.3332 695.496 40.7252C695.972 39.9225 696.709 39.5212 697.708 39.5212C698.38 39.5212 698.949 39.7405 699.416 40.1792C699.883 40.6178 700.116 41.2618 700.116 42.1112V46.5352H698.548V42.3772C698.548 41.9572 698.436 41.6212 698.212 41.3692C697.997 41.1078 697.671 40.9772 697.232 40.9772C696.812 40.9772 696.471 41.1218 696.21 41.4112C695.949 41.7005 695.818 42.0598 695.818 42.4892V46.5352H694.222V42.3772C694.222 41.9572 694.11 41.6212 693.886 41.3692C693.671 41.1078 693.345 40.9772 692.906 40.9772C692.477 40.9772 692.131 41.1218 691.87 41.4112C691.618 41.6912 691.492 42.0505 691.492 42.4892V46.5352ZM703.239 42.3772H706.585C706.566 41.9478 706.412 41.5885 706.123 41.2992C705.843 41.0098 705.437 40.8652 704.905 40.8652C704.419 40.8652 704.027 41.0192 703.729 41.3272C703.43 41.6258 703.267 41.9758 703.239 42.3772ZM706.767 44.1552L708.139 44.5892C707.943 45.2145 707.574 45.7325 707.033 46.1432C706.501 46.5445 705.843 46.7452 705.059 46.7452C704.088 46.7452 703.262 46.4138 702.581 45.7512C701.909 45.0885 701.573 44.2018 701.573 43.0912C701.573 42.0458 701.899 41.1872 702.553 40.5152C703.215 39.8432 703.995 39.5072 704.891 39.5072C705.936 39.5072 706.753 39.8292 707.341 40.4732C707.929 41.1078 708.223 41.9665 708.223 43.0492C708.223 43.3385 708.209 43.5112 708.181 43.5672H703.197C703.215 44.0805 703.402 44.5052 703.757 44.8412C704.121 45.1772 704.555 45.3452 705.059 45.3452C705.936 45.3452 706.505 44.9485 706.767 44.1552Z" fill="#42526E"/>
<path d="M82.714 38.9332L81.202 39.4092C81.1367 39.0265 80.9453 38.6765 80.628 38.3592C80.3107 38.0418 79.8533 37.8832 79.256 37.8832C78.7613 37.8832 78.3507 38.0232 78.024 38.3032C77.7067 38.5832 77.548 38.9192 77.548 39.3112C77.548 39.9925 77.9353 40.4172 78.71 40.5852L80.138 40.8792C80.9967 41.0472 81.6593 41.3878 82.126 41.9012C82.5927 42.4145 82.826 43.0258 82.826 43.7352C82.826 44.5565 82.5087 45.2658 81.874 45.8632C81.2487 46.4512 80.3947 46.7452 79.312 46.7452C78.1453 46.7452 77.2353 46.4418 76.582 45.8352C75.9287 45.2192 75.56 44.5052 75.476 43.6932L77.044 43.2452C77.1 43.8052 77.324 44.2765 77.716 44.6592C78.108 45.0418 78.64 45.2332 79.312 45.2332C79.8907 45.2332 80.334 45.1072 80.642 44.8552C80.9593 44.5938 81.118 44.2625 81.118 43.8612C81.118 43.5345 81.0013 43.2545 80.768 43.0212C80.5347 42.7785 80.208 42.6105 79.788 42.5172L78.388 42.2232C77.6133 42.0645 76.9973 41.7425 76.54 41.2572C76.092 40.7718 75.868 40.1652 75.868 39.4372C75.868 38.6065 76.1993 37.8925 76.862 37.2952C77.5247 36.6978 78.318 36.3992 79.242 36.3992C80.2967 36.3992 81.104 36.6558 81.664 37.1692C82.224 37.6732 82.574 38.2612 82.714 38.9332ZM86.4615 37.6312V39.7172H87.8755V41.1592H86.4615V44.3232C86.4615 44.6218 86.5315 44.8412 86.6715 44.9812C86.8115 45.1118 87.0308 45.1772 87.3295 45.1772C87.5162 45.1772 87.7028 45.1585 87.8895 45.1212V46.4652C87.6468 46.5678 87.3155 46.6192 86.8955 46.6192C86.2608 46.6192 85.7615 46.4418 85.3975 46.0872C85.0335 45.7232 84.8515 45.2238 84.8515 44.5892V41.1592H83.5915V39.7172H83.9415C84.2868 39.7172 84.5482 39.6192 84.7255 39.4232C84.9028 39.2272 84.9915 38.9705 84.9915 38.6532V37.6312H86.4615ZM89.1378 44.6872C89.1378 44.1085 89.3245 43.6465 89.6978 43.3012C90.0805 42.9465 90.5798 42.7225 91.1958 42.6292L92.9458 42.3632C93.2818 42.3165 93.4498 42.1532 93.4498 41.8732C93.4498 41.5652 93.3425 41.3178 93.1278 41.1312C92.9131 40.9352 92.5911 40.8372 92.1618 40.8372C91.7511 40.8372 91.4245 40.9538 91.1818 41.1872C90.9391 41.4112 90.7991 41.7052 90.7618 42.0692L89.2778 41.7332C89.3431 41.1172 89.6371 40.5945 90.1598 40.1652C90.6825 39.7265 91.3451 39.5072 92.1478 39.5072C93.1371 39.5072 93.8651 39.7452 94.3318 40.2212C94.8078 40.6972 95.0458 41.3085 95.0458 42.0552V45.4432C95.0458 45.8912 95.0738 46.2552 95.1298 46.5352H93.6178C93.5711 46.3952 93.5478 46.1058 93.5478 45.6672C93.0998 46.3858 92.3998 46.7452 91.4478 46.7452C90.7571 46.7452 90.1971 46.5445 89.7678 46.1432C89.3478 45.7325 89.1378 45.2472 89.1378 44.6872ZM91.7558 45.4712C92.2598 45.4712 92.6658 45.3358 92.9738 45.0652C93.2911 44.7852 93.4498 44.3325 93.4498 43.7072V43.3992L91.6718 43.6652C91.0651 43.7678 90.7618 44.0758 90.7618 44.5892C90.7618 44.8318 90.8505 45.0418 91.0278 45.2192C91.2051 45.3872 91.4478 45.4712 91.7558 45.4712ZM100.999 39.6752V41.3272C100.812 41.2992 100.635 41.2852 100.467 41.2852C99.2443 41.2852 98.633 41.9525 98.633 43.2872V46.5352H97.009V39.7172H98.591V40.8092C98.7497 40.4452 99.0063 40.1605 99.361 39.9552C99.7157 39.7405 100.117 39.6332 100.565 39.6332C100.714 39.6332 100.859 39.6472 100.999 39.6752ZM104.713 37.6312V39.7172H106.127V41.1592H104.713V44.3232C104.713 44.6218 104.783 44.8412 104.923 44.9812C105.063 45.1118 105.283 45.1772 105.581 45.1772C105.768 45.1772 105.955 45.1585 106.141 45.1212V46.4652C105.899 46.5678 105.567 46.6192 105.147 46.6192C104.513 46.6192 104.013 46.4418 103.649 46.0872C103.285 45.7232 103.103 45.2238 103.103 44.5892V41.1592H101.843V39.7172H102.193C102.539 39.7172 102.8 39.6192 102.977 39.4232C103.155 39.2272 103.243 38.9705 103.243 38.6532V37.6312H104.713ZM117.583 49.1952H115.987V45.7232C115.623 46.3765 114.956 46.7032 113.985 46.7032C113.024 46.7032 112.235 46.3625 111.619 45.6812C111.013 44.9905 110.709 44.1318 110.709 43.1052C110.709 42.0972 111.003 41.2525 111.591 40.5712C112.189 39.8898 112.973 39.5492 113.943 39.5492C114.485 39.5492 114.933 39.6565 115.287 39.8712C115.642 40.0858 115.889 40.3378 116.029 40.6272V39.7172H117.583V49.1952ZM112.851 41.5652C112.515 41.9478 112.347 42.4612 112.347 43.1052C112.347 43.7492 112.515 44.2718 112.851 44.6732C113.197 45.0745 113.635 45.2752 114.167 45.2752C114.699 45.2752 115.138 45.0745 115.483 44.6732C115.829 44.2718 116.001 43.7492 116.001 43.1052C116.001 42.4612 115.829 41.9478 115.483 41.5652C115.147 41.1825 114.709 40.9912 114.167 40.9912C113.626 40.9912 113.187 41.1825 112.851 41.5652ZM124.019 45.7792C123.861 46.0778 123.599 46.3112 123.235 46.4792C122.881 46.6472 122.498 46.7312 122.087 46.7312C121.294 46.7312 120.664 46.4745 120.197 45.9612C119.74 45.4478 119.511 44.7992 119.511 44.0152V39.7172H121.135V43.7212C121.135 44.1785 121.247 44.5518 121.471 44.8412C121.695 45.1305 122.041 45.2752 122.507 45.2752C122.965 45.2752 123.315 45.1352 123.557 44.8552C123.809 44.5752 123.935 44.2065 123.935 43.7492V39.7172H125.559V45.2892C125.559 45.6998 125.583 46.1152 125.629 46.5352H124.075C124.038 46.3298 124.019 46.0778 124.019 45.7792ZM127.241 44.6872C127.241 44.1085 127.428 43.6465 127.801 43.3012C128.184 42.9465 128.683 42.7225 129.299 42.6292L131.049 42.3632C131.385 42.3165 131.553 42.1532 131.553 41.8732C131.553 41.5652 131.446 41.3178 131.231 41.1312C131.017 40.9352 130.695 40.8372 130.265 40.8372C129.855 40.8372 129.528 40.9538 129.285 41.1872C129.043 41.4112 128.903 41.7052 128.865 42.0692L127.381 41.7332C127.447 41.1172 127.741 40.5945 128.263 40.1652C128.786 39.7265 129.449 39.5072 130.251 39.5072C131.241 39.5072 131.969 39.7452 132.435 40.2212C132.911 40.6972 133.149 41.3085 133.149 42.0552V45.4432C133.149 45.8912 133.177 46.2552 133.233 46.5352H131.721C131.675 46.3952 131.651 46.1058 131.651 45.6672C131.203 46.3858 130.503 46.7452 129.551 46.7452C128.861 46.7452 128.301 46.5445 127.871 46.1432C127.451 45.7325 127.241 45.2472 127.241 44.6872ZM129.859 45.4712C130.363 45.4712 130.769 45.3358 131.077 45.0652C131.395 44.7852 131.553 44.3325 131.553 43.7072V43.3992L129.775 43.6652C129.169 43.7678 128.865 44.0758 128.865 44.5892C128.865 44.8318 128.954 45.0418 129.131 45.2192C129.309 45.3872 129.551 45.4712 129.859 45.4712ZM139.103 39.6752V41.3272C138.916 41.2992 138.739 41.2852 138.571 41.2852C137.348 41.2852 136.737 41.9525 136.737 43.2872V46.5352H135.113V39.7172H136.695V40.8092C136.853 40.4452 137.11 40.1605 137.465 39.9552C137.819 39.7405 138.221 39.6332 138.669 39.6332C138.818 39.6332 138.963 39.6472 139.103 39.6752ZM142.817 37.6312V39.7172H144.231V41.1592H142.817V44.3232C142.817 44.6218 142.887 44.8412 143.027 44.9812C143.167 45.1118 143.386 45.1772 143.685 45.1772C143.872 45.1772 144.058 45.1585 144.245 45.1212V46.4652C144.002 46.5678 143.671 46.6192 143.251 46.6192C142.616 46.6192 142.117 46.4418 141.753 46.0872C141.389 45.7232 141.207 45.2238 141.207 44.5892V41.1592H139.947V39.7172H140.297C140.642 39.7172 140.904 39.6192 141.081 39.4232C141.258 39.2272 141.347 38.9705 141.347 38.6532V37.6312H142.817ZM146.965 42.3772H150.311C150.293 41.9478 150.139 41.5885 149.849 41.2992C149.569 41.0098 149.163 40.8652 148.631 40.8652C148.146 40.8652 147.754 41.0192 147.455 41.3272C147.157 41.6258 146.993 41.9758 146.965 42.3772ZM150.493 44.1552L151.865 44.5892C151.669 45.2145 151.301 45.7325 150.759 46.1432C150.227 46.5445 149.569 46.7452 148.785 46.7452C147.815 46.7452 146.989 46.4138 146.307 45.7512C145.635 45.0885 145.299 44.2018 145.299 43.0912C145.299 42.0458 145.626 41.1872 146.279 40.5152C146.942 39.8432 147.721 39.5072 148.617 39.5072C149.663 39.5072 150.479 39.8292 151.067 40.4732C151.655 41.1078 151.949 41.9665 151.949 43.0492C151.949 43.3385 151.935 43.5112 151.907 43.5672H146.923C146.942 44.0805 147.129 44.5052 147.483 44.8412C147.847 45.1772 148.281 45.3452 148.785 45.3452C149.663 45.3452 150.232 44.9485 150.493 44.1552ZM157.491 39.6752V41.3272C157.305 41.2992 157.127 41.2852 156.959 41.2852C155.737 41.2852 155.125 41.9525 155.125 43.2872V46.5352H153.501V39.7172H155.083V40.8092C155.242 40.4452 155.499 40.1605 155.853 39.9552C156.208 39.7405 156.609 39.6332 157.057 39.6332C157.207 39.6332 157.351 39.6472 157.491 39.6752ZM160.471 46.5352H158.847V36.3992H160.471V46.5352ZM164.638 49.2932H162.902L164.54 45.7232L161.628 39.7172H163.462L165.422 44.0292L167.256 39.7172H168.978L164.638 49.2932ZM173.038 44.6872L174.452 44.2952C174.48 44.6218 174.615 44.8972 174.858 45.1212C175.101 45.3452 175.427 45.4572 175.838 45.4572C176.155 45.4572 176.403 45.3825 176.58 45.2332C176.767 45.0838 176.86 44.8972 176.86 44.6732C176.86 44.2812 176.594 44.0292 176.062 43.9172L175.054 43.6932C174.466 43.5625 174.013 43.3198 173.696 42.9652C173.379 42.6105 173.22 42.1905 173.22 41.7052C173.22 41.1078 173.463 40.5945 173.948 40.1652C174.433 39.7265 175.026 39.5072 175.726 39.5072C176.174 39.5072 176.571 39.5725 176.916 39.7032C177.261 39.8338 177.527 40.0065 177.714 40.2212C177.91 40.4265 178.059 40.6272 178.162 40.8232C178.265 41.0192 178.33 41.2152 178.358 41.4112L176.986 41.8032C176.949 41.5418 176.827 41.3085 176.622 41.1032C176.426 40.8885 176.127 40.7812 175.726 40.7812C175.446 40.7812 175.213 40.8605 175.026 41.0192C174.839 41.1685 174.746 41.3505 174.746 41.5652C174.746 41.9478 174.975 42.1858 175.432 42.2792L176.468 42.4892C177.103 42.6292 177.588 42.8812 177.924 43.2452C178.26 43.6092 178.428 44.0478 178.428 44.5612C178.428 45.1305 178.199 45.6392 177.742 46.0872C177.294 46.5258 176.664 46.7452 175.852 46.7452C175.385 46.7452 174.965 46.6752 174.592 46.5352C174.228 46.3952 173.939 46.2178 173.724 46.0032C173.519 45.7792 173.355 45.5598 173.234 45.3452C173.122 45.1212 173.057 44.9018 173.038 44.6872ZM181.131 42.3772H184.477C184.459 41.9478 184.305 41.5885 184.015 41.2992C183.735 41.0098 183.329 40.8652 182.797 40.8652C182.312 40.8652 181.92 41.0192 181.621 41.3272C181.323 41.6258 181.159 41.9758 181.131 42.3772ZM184.659 44.1552L186.031 44.5892C185.835 45.2145 185.467 45.7325 184.925 46.1432C184.393 46.5445 183.735 46.7452 182.951 46.7452C181.981 46.7452 181.155 46.4138 180.473 45.7512C179.801 45.0885 179.465 44.2018 179.465 43.0912C179.465 42.0458 179.792 41.1872 180.445 40.5152C181.108 39.8432 181.887 39.5072 182.783 39.5072C183.829 39.5072 184.645 39.8292 185.233 40.4732C185.821 41.1078 186.115 41.9665 186.115 43.0492C186.115 43.3385 186.101 43.5112 186.073 43.5672H181.089C181.108 44.0805 181.295 44.5052 181.649 44.8412C182.013 45.1772 182.447 45.3452 182.951 45.3452C183.829 45.3452 184.398 44.9485 184.659 44.1552ZM189.291 46.5352H187.667V36.3992H189.291V46.5352ZM194.41 37.7852C194.139 37.7852 193.901 37.8645 193.696 38.0232C193.5 38.1725 193.402 38.4385 193.402 38.8212V39.7172H194.984V41.1312H193.402V46.5352H191.764V41.1312H190.574V39.7172H191.764V38.7792C191.764 38.0232 191.983 37.4258 192.422 36.9872C192.861 36.5485 193.435 36.3292 194.144 36.3292C194.527 36.3292 194.811 36.3758 194.998 36.4692V37.8552C194.83 37.8085 194.634 37.7852 194.41 37.7852ZM203.743 39.6752V41.3272C203.556 41.2992 203.379 41.2852 203.211 41.2852C201.988 41.2852 201.377 41.9525 201.377 43.2872V46.5352H199.753V39.7172H201.335V40.8092C201.494 40.4452 201.75 40.1605 202.105 39.9552C202.46 39.7405 202.861 39.6332 203.309 39.6332C203.458 39.6332 203.603 39.6472 203.743 39.6752ZM206.164 42.3772H209.51C209.492 41.9478 209.338 41.5885 209.048 41.2992C208.768 41.0098 208.362 40.8652 207.83 40.8652C207.345 40.8652 206.953 41.0192 206.654 41.3272C206.356 41.6258 206.192 41.9758 206.164 42.3772ZM209.692 44.1552L211.064 44.5892C210.868 45.2145 210.5 45.7325 209.958 46.1432C209.426 46.5445 208.768 46.7452 207.984 46.7452C207.014 46.7452 206.188 46.4138 205.506 45.7512C204.834 45.0885 204.498 44.2018 204.498 43.0912C204.498 42.0458 204.825 41.1872 205.478 40.5152C206.141 39.8432 206.92 39.5072 207.816 39.5072C208.862 39.5072 209.678 39.8292 210.266 40.4732C210.854 41.1078 211.148 41.9665 211.148 43.0492C211.148 43.3385 211.134 43.5112 211.106 43.5672H206.122C206.141 44.0805 206.328 44.5052 206.682 44.8412C207.046 45.1772 207.48 45.3452 207.984 45.3452C208.862 45.3452 209.431 44.9485 209.692 44.1552ZM218.724 39.7172L216.05 46.5352H214.426L211.654 39.7172H213.446L215.252 44.5892L217.016 39.7172H218.724ZM221.529 46.5352H219.919V39.7172H221.529V46.5352ZM219.975 38.0652C219.77 37.8598 219.667 37.6125 219.667 37.3232C219.667 37.0338 219.77 36.7865 219.975 36.5812C220.18 36.3665 220.428 36.2592 220.717 36.2592C221.016 36.2592 221.268 36.3618 221.473 36.5672C221.678 36.7725 221.781 37.0245 221.781 37.3232C221.781 37.6125 221.678 37.8598 221.473 38.0652C221.268 38.2705 221.016 38.3732 220.717 38.3732C220.428 38.3732 220.18 38.2705 219.975 38.0652ZM224.758 42.3772H228.104C228.086 41.9478 227.932 41.5885 227.642 41.2992C227.362 41.0098 226.956 40.8652 226.424 40.8652C225.939 40.8652 225.547 41.0192 225.248 41.3272C224.95 41.6258 224.786 41.9758 224.758 42.3772ZM228.286 44.1552L229.658 44.5892C229.462 45.2145 229.094 45.7325 228.552 46.1432C228.02 46.5445 227.362 46.7452 226.578 46.7452C225.608 46.7452 224.782 46.4138 224.1 45.7512C223.428 45.0885 223.092 44.2018 223.092 43.0912C223.092 42.0458 223.419 41.1872 224.072 40.5152C224.735 39.8432 225.514 39.5072 226.41 39.5072C227.456 39.5072 228.272 39.8292 228.86 40.4732C229.448 41.1078 229.742 41.9665 229.742 43.0492C229.742 43.3385 229.728 43.5112 229.7 43.5672H224.716C224.735 44.0805 224.922 44.5052 225.276 44.8412C225.64 45.1772 226.074 45.3452 226.578 45.3452C227.456 45.3452 228.025 44.9485 228.286 44.1552ZM235.062 39.7172H236.742L238.352 44.4352L239.71 39.7172H241.362L239.178 46.5352H237.554L235.86 41.6352L234.208 46.5352H232.542L230.33 39.7172H232.066L233.452 44.4352L235.062 39.7172Z" fill="#222222"/>
<rect x="25.5" y="26.0352" width="31" height="31" rx="15.5" fill="#F3F3F3" stroke="#DDDDDD"/>
<rect x="0.5" y="1.03516" width="745" height="81" rx="1.5" stroke="#DDDDDD"/>
</svg>
