<svg width="746" height="83" viewBox="0 0 746 83" fill="none" xmlns="http://www.w3.org/2000/svg">
<rect x="0.5" y="1.03516" width="745" height="81" rx="1.5" fill="white"/>
<path d="M673.575 36.6092H676.991C677.924 36.6092 678.661 36.8565 679.203 37.3512C679.744 37.8458 680.015 38.4898 680.015 39.2832C680.015 39.7965 679.879 40.2445 679.609 40.6272C679.338 41.0005 678.983 41.2665 678.545 41.4252C679.077 41.5652 679.506 41.8498 679.833 42.2792C680.159 42.7085 680.323 43.2125 680.323 43.7912C680.323 44.5938 680.038 45.2518 679.469 45.7652C678.899 46.2785 678.157 46.5352 677.243 46.5352H673.575V36.6092ZM675.241 40.8092H676.767C677.252 40.8092 677.635 40.6832 677.915 40.4312C678.195 40.1792 678.335 39.8432 678.335 39.4232C678.335 38.9938 678.19 38.6578 677.901 38.4152C677.621 38.1632 677.229 38.0372 676.725 38.0372H675.241V40.8092ZM675.241 45.1072H676.949C677.453 45.1072 677.854 44.9812 678.153 44.7292C678.461 44.4678 678.615 44.1178 678.615 43.6792C678.615 43.2405 678.47 42.8905 678.181 42.6292C677.901 42.3585 677.509 42.2232 677.005 42.2232H675.241V45.1072ZM683.141 42.3772H686.487C686.468 41.9478 686.314 41.5885 686.025 41.2992C685.745 41.0098 685.339 40.8652 684.807 40.8652C684.322 40.8652 683.93 41.0192 683.631 41.3272C683.332 41.6258 683.169 41.9758 683.141 42.3772ZM686.669 44.1552L688.041 44.5892C687.845 45.2145 687.476 45.7325 686.935 46.1432C686.403 46.5445 685.745 46.7452 684.961 46.7452C683.99 46.7452 683.164 46.4138 682.483 45.7512C681.811 45.0885 681.475 44.2018 681.475 43.0912C681.475 42.0458 681.802 41.1872 682.455 40.5152C683.118 39.8432 683.897 39.5072 684.793 39.5072C685.838 39.5072 686.655 39.8292 687.243 40.4732C687.831 41.1078 688.125 41.9665 688.125 43.0492C688.125 43.3385 688.111 43.5112 688.083 43.5672H683.099C683.118 44.0805 683.304 44.5052 683.659 44.8412C684.023 45.1772 684.457 45.3452 684.961 45.3452C685.838 45.3452 686.408 44.9485 686.669 44.1552ZM689.187 46.9132L690.685 46.5212C690.741 46.9505 690.923 47.3005 691.231 47.5712C691.548 47.8512 691.936 47.9912 692.393 47.9912C693.681 47.9912 694.325 47.3098 694.325 45.9472V45.2332C694.166 45.5225 693.914 45.7605 693.569 45.9472C693.224 46.1338 692.818 46.2272 692.351 46.2272C691.436 46.2272 690.68 45.9145 690.083 45.2892C689.495 44.6638 689.201 43.8705 689.201 42.9092C689.201 41.9852 689.495 41.2012 690.083 40.5572C690.671 39.9132 691.427 39.5912 692.351 39.5912C693.35 39.5912 694.022 39.9225 694.367 40.5852V39.7172H695.935V45.8912C695.935 46.8992 695.65 47.7345 695.081 48.3972C694.512 49.0692 693.63 49.4052 692.435 49.4052C691.558 49.4052 690.82 49.1672 690.223 48.6912C689.626 48.2152 689.28 47.6225 689.187 46.9132ZM692.617 44.8412C693.14 44.8412 693.56 44.6685 693.877 44.3232C694.204 43.9685 694.367 43.4972 694.367 42.9092C694.367 42.3305 694.204 41.8685 693.877 41.5232C693.55 41.1685 693.13 40.9912 692.617 40.9912C692.094 40.9912 691.665 41.1685 691.329 41.5232C691.002 41.8685 690.839 42.3305 690.839 42.9092C690.839 43.4972 691.002 43.9685 691.329 44.3232C691.656 44.6685 692.085 44.8412 692.617 44.8412ZM699.531 46.5352H697.921V39.7172H699.531V46.5352ZM697.977 38.0652C697.772 37.8598 697.669 37.6125 697.669 37.3232C697.669 37.0338 697.772 36.7865 697.977 36.5812C698.182 36.3665 698.43 36.2592 698.719 36.2592C699.018 36.2592 699.27 36.3618 699.475 36.5672C699.68 36.7725 699.783 37.0245 699.783 37.3232C699.783 37.6125 699.68 37.8598 699.475 38.0652C699.27 38.2705 699.018 38.3732 698.719 38.3732C698.43 38.3732 698.182 38.2705 697.977 38.0652ZM703.25 42.6012V46.5352H701.626V39.7172H703.208V40.6272C703.423 40.2538 703.708 39.9785 704.062 39.8012C704.426 39.6145 704.814 39.5212 705.224 39.5212C706.027 39.5212 706.638 39.7732 707.058 40.2772C707.478 40.7812 707.688 41.4298 707.688 42.2232V46.5352H706.064V42.5032C706.064 42.0458 705.952 41.6818 705.728 41.4112C705.504 41.1312 705.15 40.9912 704.664 40.9912C704.216 40.9912 703.866 41.1452 703.614 41.4532C703.372 41.7518 703.25 42.1345 703.25 42.6012Z" fill="#0052CC"/>
<path d="M82.434 45.7792C81.7433 46.4232 80.8567 46.7452 79.774 46.7452C78.6913 46.7452 77.8047 46.4232 77.114 45.7792C76.4233 45.1352 76.078 44.2345 76.078 43.0772V36.6092H77.744V42.9792C77.744 43.6698 77.9213 44.2065 78.276 44.5892C78.64 44.9625 79.1393 45.1492 79.774 45.1492C80.418 45.1492 80.9173 44.9625 81.272 44.5892C81.6267 44.2158 81.804 43.6792 81.804 42.9792V36.6092H83.484V43.0772C83.484 44.2345 83.134 45.1352 82.434 45.7792ZM87.1483 49.1952H85.5383V39.7172H87.1063V40.6412C87.2836 40.3332 87.5636 40.0765 87.9463 39.8712C88.3289 39.6658 88.7723 39.5632 89.2763 39.5632C90.2563 39.5632 91.0263 39.8992 91.5863 40.5712C92.1463 41.2338 92.4263 42.0832 92.4263 43.1192C92.4263 44.1552 92.1323 45.0138 91.5443 45.6952C90.9563 46.3672 90.1816 46.7032 89.2203 46.7032C88.7536 46.7032 88.3383 46.6145 87.9743 46.4372C87.6103 46.2598 87.3349 46.0358 87.1483 45.7652V49.1952ZM90.8023 43.1192C90.8023 42.4845 90.6343 41.9758 90.2983 41.5932C89.9623 41.2012 89.5189 41.0052 88.9683 41.0052C88.4269 41.0052 87.9836 41.2012 87.6383 41.5932C87.3023 41.9758 87.1343 42.4845 87.1343 43.1192C87.1343 43.7632 87.3023 44.2812 87.6383 44.6732C87.9836 45.0652 88.4269 45.2612 88.9683 45.2612C89.5096 45.2612 89.9483 45.0652 90.2843 44.6732C90.6296 44.2812 90.8023 43.7632 90.8023 43.1192ZM95.6115 46.5352H93.9875V36.3992H95.6115V46.5352ZM99.3443 44.7152C99.7176 45.0978 100.17 45.2892 100.702 45.2892C101.234 45.2892 101.682 45.0978 102.046 44.7152C102.42 44.3325 102.606 43.8005 102.606 43.1192C102.606 42.4472 102.42 41.9245 102.046 41.5512C101.682 41.1685 101.234 40.9772 100.702 40.9772C100.17 40.9772 99.7176 41.1685 99.3443 41.5512C98.9803 41.9245 98.7983 42.4472 98.7983 43.1192C98.7983 43.7912 98.9803 44.3232 99.3443 44.7152ZM100.702 39.5072C101.729 39.5072 102.574 39.8478 103.236 40.5292C103.908 41.2105 104.244 42.0738 104.244 43.1192C104.244 44.1645 103.908 45.0325 103.236 45.7232C102.574 46.4045 101.729 46.7452 100.702 46.7452C99.6849 46.7452 98.8403 46.4045 98.1683 45.7232C97.5056 45.0325 97.1743 44.1645 97.1743 43.1192C97.1743 42.0738 97.5056 41.2105 98.1683 40.5292C98.8403 39.8478 99.6849 39.5072 100.702 39.5072ZM105.394 44.6872C105.394 44.1085 105.58 43.6465 105.954 43.3012C106.336 42.9465 106.836 42.7225 107.452 42.6292L109.202 42.3632C109.538 42.3165 109.706 42.1532 109.706 41.8732C109.706 41.5652 109.598 41.3178 109.384 41.1312C109.169 40.9352 108.847 40.8372 108.418 40.8372C108.007 40.8372 107.68 40.9538 107.438 41.1872C107.195 41.4112 107.055 41.7052 107.018 42.0692L105.534 41.7332C105.599 41.1172 105.893 40.5945 106.416 40.1652C106.938 39.7265 107.601 39.5072 108.404 39.5072C109.393 39.5072 110.121 39.7452 110.588 40.2212C111.064 40.6972 111.302 41.3085 111.302 42.0552V45.4432C111.302 45.8912 111.33 46.2552 111.386 46.5352H109.874C109.827 46.3952 109.804 46.1058 109.804 45.6672C109.356 46.3858 108.656 46.7452 107.704 46.7452C107.013 46.7452 106.453 46.5445 106.024 46.1432C105.604 45.7325 105.394 45.2472 105.394 44.6872ZM108.012 45.4712C108.516 45.4712 108.922 45.3358 109.23 45.0652C109.547 44.7852 109.706 44.3325 109.706 43.7072V43.3992L107.928 43.6652C107.321 43.7678 107.018 44.0758 107.018 44.5892C107.018 44.8318 107.106 45.0418 107.284 45.2192C107.461 45.3872 107.704 45.4712 108.012 45.4712ZM114.343 43.1052C114.343 43.7585 114.511 44.2858 114.847 44.6872C115.183 45.0792 115.627 45.2752 116.177 45.2752C116.709 45.2752 117.143 45.0745 117.479 44.6732C117.815 44.2718 117.983 43.7445 117.983 43.0912C117.983 42.4472 117.82 41.9338 117.493 41.5512C117.167 41.1685 116.733 40.9772 116.191 40.9772C115.65 40.9772 115.207 41.1732 114.861 41.5652C114.516 41.9478 114.343 42.4612 114.343 43.1052ZM119.551 36.3992V45.2892C119.551 45.7465 119.575 46.1618 119.621 46.5352H118.067C118.021 46.2738 117.997 45.9798 117.997 45.6532C117.829 45.9612 117.568 46.2132 117.213 46.4092C116.859 46.6052 116.453 46.7032 115.995 46.7032C115.025 46.7032 114.236 46.3625 113.629 45.6812C113.023 44.9998 112.719 44.1412 112.719 43.1052C112.719 42.1065 113.023 41.2618 113.629 40.5712C114.245 39.8805 115.025 39.5352 115.967 39.5352C116.509 39.5352 116.943 39.6332 117.269 39.8292C117.605 40.0252 117.839 40.2538 117.969 40.5152V36.3992H119.551ZM127.218 49.2932H125.482L127.12 45.7232L124.208 39.7172H126.042L128.002 44.0292L129.836 39.7172H131.558L127.218 49.2932ZM134.071 44.7152C134.444 45.0978 134.897 45.2892 135.429 45.2892C135.961 45.2892 136.409 45.0978 136.773 44.7152C137.146 44.3325 137.333 43.8005 137.333 43.1192C137.333 42.4472 137.146 41.9245 136.773 41.5512C136.409 41.1685 135.961 40.9772 135.429 40.9772C134.897 40.9772 134.444 41.1685 134.071 41.5512C133.707 41.9245 133.525 42.4472 133.525 43.1192C133.525 43.7912 133.707 44.3232 134.071 44.7152ZM135.429 39.5072C136.455 39.5072 137.3 39.8478 137.963 40.5292C138.635 41.2105 138.971 42.0738 138.971 43.1192C138.971 44.1645 138.635 45.0325 137.963 45.7232C137.3 46.4045 136.455 46.7452 135.429 46.7452C134.411 46.7452 133.567 46.4045 132.895 45.7232C132.232 45.0325 131.901 44.1645 131.901 43.1192C131.901 42.0738 132.232 41.2105 132.895 40.5292C133.567 39.8478 134.411 39.5072 135.429 39.5072ZM144.937 45.7792C144.779 46.0778 144.517 46.3112 144.153 46.4792C143.799 46.6472 143.416 46.7312 143.005 46.7312C142.212 46.7312 141.582 46.4745 141.115 45.9612C140.658 45.4478 140.429 44.7992 140.429 44.0152V39.7172H142.053V43.7212C142.053 44.1785 142.165 44.5518 142.389 44.8412C142.613 45.1305 142.959 45.2752 143.425 45.2752C143.883 45.2752 144.233 45.1352 144.475 44.8552C144.727 44.5752 144.853 44.2065 144.853 43.7492V39.7172H146.477V45.2892C146.477 45.6998 146.501 46.1152 146.547 46.5352H144.993C144.956 46.3298 144.937 46.0778 144.937 45.7792ZM152.569 39.6752V41.3272C152.383 41.2992 152.205 41.2852 152.037 41.2852C150.815 41.2852 150.203 41.9525 150.203 43.2872V46.5352H148.579V39.7172H150.161V40.8092C150.32 40.4452 150.577 40.1605 150.931 39.9552C151.286 39.7405 151.687 39.6332 152.135 39.6332C152.285 39.6332 152.429 39.6472 152.569 39.6752ZM158.504 42.3772H161.85C161.832 41.9478 161.678 41.5885 161.388 41.2992C161.108 41.0098 160.702 40.8652 160.17 40.8652C159.685 40.8652 159.293 41.0192 158.994 41.3272C158.696 41.6258 158.532 41.9758 158.504 42.3772ZM162.032 44.1552L163.404 44.5892C163.208 45.2145 162.84 45.7325 162.298 46.1432C161.766 46.5445 161.108 46.7452 160.324 46.7452C159.354 46.7452 158.528 46.4138 157.846 45.7512C157.174 45.0885 156.838 44.2018 156.838 43.0912C156.838 42.0458 157.165 41.1872 157.818 40.5152C158.481 39.8432 159.26 39.5072 160.156 39.5072C161.202 39.5072 162.018 39.8292 162.606 40.4732C163.194 41.1078 163.488 41.9665 163.488 43.0492C163.488 43.3385 163.474 43.5112 163.446 43.5672H158.462C158.481 44.0805 158.668 44.5052 159.022 44.8412C159.386 45.1772 159.82 45.3452 160.324 45.3452C161.202 45.3452 161.771 44.9485 162.032 44.1552ZM166.65 46.5352H165.04V39.7172H166.594V40.5852C166.781 40.2492 167.061 39.9878 167.434 39.8012C167.817 39.6145 168.209 39.5212 168.61 39.5212C169.068 39.5212 169.478 39.6238 169.842 39.8292C170.206 40.0345 170.477 40.3332 170.654 40.7252C171.13 39.9225 171.868 39.5212 172.866 39.5212C173.538 39.5212 174.108 39.7405 174.574 40.1792C175.041 40.6178 175.274 41.2618 175.274 42.1112V46.5352H173.706V42.3772C173.706 41.9572 173.594 41.6212 173.37 41.3692C173.156 41.1078 172.829 40.9772 172.39 40.9772C171.97 40.9772 171.63 41.1218 171.368 41.4112C171.107 41.7005 170.976 42.0598 170.976 42.4892V46.5352H169.38V42.3772C169.38 41.9572 169.268 41.6212 169.044 41.3692C168.83 41.1078 168.503 40.9772 168.064 40.9772C167.635 40.9772 167.29 41.1218 167.028 41.4112C166.776 41.6912 166.65 42.0505 166.65 42.4892V46.5352ZM178.873 49.1952H177.263V39.7172H178.831V40.6412C179.008 40.3332 179.288 40.0765 179.671 39.8712C180.054 39.6658 180.497 39.5632 181.001 39.5632C181.981 39.5632 182.751 39.8992 183.311 40.5712C183.871 41.2338 184.151 42.0832 184.151 43.1192C184.151 44.1552 183.857 45.0138 183.269 45.6952C182.681 46.3672 181.906 46.7032 180.945 46.7032C180.478 46.7032 180.063 46.6145 179.699 46.4372C179.335 46.2598 179.06 46.0358 178.873 45.7652V49.1952ZM182.527 43.1192C182.527 42.4845 182.359 41.9758 182.023 41.5932C181.687 41.2012 181.244 41.0052 180.693 41.0052C180.152 41.0052 179.708 41.2012 179.363 41.5932C179.027 41.9758 178.859 42.4845 178.859 43.1192C178.859 43.7632 179.027 44.2812 179.363 44.6732C179.708 45.0652 180.152 45.2612 180.693 45.2612C181.234 45.2612 181.673 45.0652 182.009 44.6732C182.354 44.2812 182.527 43.7632 182.527 43.1192ZM187.336 46.5352H185.712V36.3992H187.336V46.5352ZM191.069 44.7152C191.442 45.0978 191.895 45.2892 192.427 45.2892C192.959 45.2892 193.407 45.0978 193.771 44.7152C194.144 44.3325 194.331 43.8005 194.331 43.1192C194.331 42.4472 194.144 41.9245 193.771 41.5512C193.407 41.1685 192.959 40.9772 192.427 40.9772C191.895 40.9772 191.442 41.1685 191.069 41.5512C190.705 41.9245 190.523 42.4472 190.523 43.1192C190.523 43.7912 190.705 44.3232 191.069 44.7152ZM192.427 39.5072C193.454 39.5072 194.298 39.8478 194.961 40.5292C195.633 41.2105 195.969 42.0738 195.969 43.1192C195.969 44.1645 195.633 45.0325 194.961 45.7232C194.298 46.4045 193.454 46.7452 192.427 46.7452C191.41 46.7452 190.565 46.4045 189.893 45.7232C189.23 45.0325 188.899 44.1645 188.899 43.1192C188.899 42.0738 189.23 41.2105 189.893 40.5292C190.565 39.8478 191.41 39.5072 192.427 39.5072ZM199.296 49.2932H197.56L199.198 45.7232L196.286 39.7172H198.12L200.08 44.0292L201.914 39.7172H203.636L199.296 49.2932ZM205.645 42.3772H208.991C208.972 41.9478 208.818 41.5885 208.529 41.2992C208.249 41.0098 207.843 40.8652 207.311 40.8652C206.826 40.8652 206.434 41.0192 206.135 41.3272C205.836 41.6258 205.673 41.9758 205.645 42.3772ZM209.173 44.1552L210.545 44.5892C210.349 45.2145 209.98 45.7325 209.439 46.1432C208.907 46.5445 208.249 46.7452 207.465 46.7452C206.494 46.7452 205.668 46.4138 204.987 45.7512C204.315 45.0885 203.979 44.2018 203.979 43.0912C203.979 42.0458 204.306 41.1872 204.959 40.5152C205.622 39.8432 206.401 39.5072 207.297 39.5072C208.342 39.5072 209.159 39.8292 209.747 40.4732C210.335 41.1078 210.629 41.9665 210.629 43.0492C210.629 43.3385 210.615 43.5112 210.587 43.5672H205.603C205.622 44.0805 205.808 44.5052 206.163 44.8412C206.527 45.1772 206.961 45.3452 207.465 45.3452C208.342 45.3452 208.912 44.9485 209.173 44.1552ZM213.315 42.3772H216.661C216.642 41.9478 216.488 41.5885 216.199 41.2992C215.919 41.0098 215.513 40.8652 214.981 40.8652C214.496 40.8652 214.104 41.0192 213.805 41.3272C213.506 41.6258 213.343 41.9758 213.315 42.3772ZM216.843 44.1552L218.215 44.5892C218.019 45.2145 217.65 45.7325 217.109 46.1432C216.577 46.5445 215.919 46.7452 215.135 46.7452C214.164 46.7452 213.338 46.4138 212.657 45.7512C211.985 45.0885 211.649 44.2018 211.649 43.0912C211.649 42.0458 211.976 41.1872 212.629 40.5152C213.292 39.8432 214.071 39.5072 214.967 39.5072C216.012 39.5072 216.829 39.8292 217.417 40.4732C218.005 41.1078 218.299 41.9665 218.299 43.0492C218.299 43.3385 218.285 43.5112 218.257 43.5672H213.273C213.292 44.0805 213.478 44.5052 213.833 44.8412C214.197 45.1772 214.631 45.3452 215.135 45.3452C216.012 45.3452 216.582 44.9485 216.843 44.1552ZM224.933 49.1952H223.323V39.7172H224.891V40.6412C225.069 40.3332 225.349 40.0765 225.731 39.8712C226.114 39.6658 226.557 39.5632 227.061 39.5632C228.041 39.5632 228.811 39.8992 229.371 40.5712C229.931 41.2338 230.211 42.0832 230.211 43.1192C230.211 44.1552 229.917 45.0138 229.329 45.6952C228.741 46.3672 227.967 46.7032 227.005 46.7032C226.539 46.7032 226.123 46.6145 225.759 46.4372C225.395 46.2598 225.12 46.0358 224.933 45.7652V49.1952ZM228.587 43.1192C228.587 42.4845 228.419 41.9758 228.083 41.5932C227.747 41.2012 227.304 41.0052 226.753 41.0052C226.212 41.0052 225.769 41.2012 225.423 41.5932C225.087 41.9758 224.919 42.4845 224.919 43.1192C224.919 43.7632 225.087 44.2812 225.423 44.6732C225.769 45.0652 226.212 45.2612 226.753 45.2612C227.295 45.2612 227.733 45.0652 228.069 44.6732C228.415 44.2812 228.587 43.7632 228.587 43.1192ZM232.907 42.3772H236.253C236.234 41.9478 236.08 41.5885 235.791 41.2992C235.511 41.0098 235.105 40.8652 234.573 40.8652C234.087 40.8652 233.695 41.0192 233.397 41.3272C233.098 41.6258 232.935 41.9758 232.907 42.3772ZM236.435 44.1552L237.807 44.5892C237.611 45.2145 237.242 45.7325 236.701 46.1432C236.169 46.5445 235.511 46.7452 234.727 46.7452C233.756 46.7452 232.93 46.4138 232.249 45.7512C231.577 45.0885 231.241 44.2018 231.241 43.0912C231.241 42.0458 231.567 41.1872 232.221 40.5152C232.883 39.8432 233.663 39.5072 234.559 39.5072C235.604 39.5072 236.421 39.8292 237.009 40.4732C237.597 41.1078 237.891 41.9665 237.891 43.0492C237.891 43.3385 237.877 43.5112 237.849 43.5672H232.865C232.883 44.0805 233.07 44.5052 233.425 44.8412C233.789 45.1772 234.223 45.3452 234.727 45.3452C235.604 45.3452 236.173 44.9485 236.435 44.1552ZM243.433 39.6752V41.3272C243.246 41.2992 243.069 41.2852 242.901 41.2852C241.678 41.2852 241.067 41.9525 241.067 43.2872V46.5352H239.443V39.7172H241.025V40.8092C241.183 40.4452 241.44 40.1605 241.795 39.9552C242.149 39.7405 242.551 39.6332 242.999 39.6332C243.148 39.6332 243.293 39.6472 243.433 39.6752ZM248.113 37.7852C247.842 37.7852 247.604 37.8645 247.399 38.0232C247.203 38.1725 247.105 38.4385 247.105 38.8212V39.7172H248.687V41.1312H247.105V46.5352H245.467V41.1312H244.277V39.7172H245.467V38.7792C245.467 38.0232 245.686 37.4258 246.125 36.9872C246.564 36.5485 247.138 36.3292 247.847 36.3292C248.23 36.3292 248.514 36.3758 248.701 36.4692V37.8552C248.533 37.8085 248.337 37.7852 248.113 37.7852ZM251.417 44.7152C251.79 45.0978 252.243 45.2892 252.775 45.2892C253.307 45.2892 253.755 45.0978 254.119 44.7152C254.492 44.3325 254.679 43.8005 254.679 43.1192C254.679 42.4472 254.492 41.9245 254.119 41.5512C253.755 41.1685 253.307 40.9772 252.775 40.9772C252.243 40.9772 251.79 41.1685 251.417 41.5512C251.053 41.9245 250.871 42.4472 250.871 43.1192C250.871 43.7912 251.053 44.3232 251.417 44.7152ZM252.775 39.5072C253.801 39.5072 254.646 39.8478 255.309 40.5292C255.981 41.2105 256.317 42.0738 256.317 43.1192C256.317 44.1645 255.981 45.0325 255.309 45.7232C254.646 46.4045 253.801 46.7452 252.775 46.7452C251.757 46.7452 250.913 46.4045 250.241 45.7232C249.578 45.0325 249.247 44.1645 249.247 43.1192C249.247 42.0738 249.578 41.2105 250.241 40.5292C250.913 39.8478 251.757 39.5072 252.775 39.5072ZM261.876 39.6752V41.3272C261.689 41.2992 261.512 41.2852 261.344 41.2852C260.121 41.2852 259.51 41.9525 259.51 43.2872V46.5352H257.886V39.7172H259.468V40.8092C259.627 40.4452 259.883 40.1605 260.238 39.9552C260.593 39.7405 260.994 39.6332 261.442 39.6332C261.591 39.6332 261.736 39.6472 261.876 39.6752ZM264.842 46.5352H263.232V39.7172H264.786V40.5852C264.972 40.2492 265.252 39.9878 265.626 39.8012C266.008 39.6145 266.4 39.5212 266.802 39.5212C267.259 39.5212 267.67 39.6238 268.034 39.8292C268.398 40.0345 268.668 40.3332 268.846 40.7252C269.322 39.9225 270.059 39.5212 271.058 39.5212C271.73 39.5212 272.299 39.7405 272.766 40.1792C273.232 40.6178 273.466 41.2618 273.466 42.1112V46.5352H271.898V42.3772C271.898 41.9572 271.786 41.6212 271.562 41.3692C271.347 41.1078 271.02 40.9772 270.582 40.9772C270.162 40.9772 269.821 41.1218 269.56 41.4112C269.298 41.7005 269.168 42.0598 269.168 42.4892V46.5352H267.572V42.3772C267.572 41.9572 267.46 41.6212 267.236 41.3692C267.021 41.1078 266.694 40.9772 266.256 40.9772C265.826 40.9772 265.481 41.1218 265.22 41.4112C264.968 41.6912 264.842 42.0505 264.842 42.4892V46.5352ZM275.034 44.6872C275.034 44.1085 275.221 43.6465 275.594 43.3012C275.977 42.9465 276.476 42.7225 277.092 42.6292L278.842 42.3632C279.178 42.3165 279.346 42.1532 279.346 41.8732C279.346 41.5652 279.239 41.3178 279.024 41.1312C278.81 40.9352 278.488 40.8372 278.058 40.8372C277.648 40.8372 277.321 40.9538 277.078 41.1872C276.836 41.4112 276.696 41.7052 276.658 42.0692L275.174 41.7332C275.24 41.1172 275.534 40.5945 276.056 40.1652C276.579 39.7265 277.242 39.5072 278.044 39.5072C279.034 39.5072 279.762 39.7452 280.228 40.2212C280.704 40.6972 280.942 41.3085 280.942 42.0552V45.4432C280.942 45.8912 280.97 46.2552 281.026 46.5352H279.514C279.468 46.3952 279.444 46.1058 279.444 45.6672C278.996 46.3858 278.296 46.7452 277.344 46.7452C276.654 46.7452 276.094 46.5445 275.664 46.1432C275.244 45.7325 275.034 45.2472 275.034 44.6872ZM277.652 45.4712C278.156 45.4712 278.562 45.3358 278.87 45.0652C279.188 44.7852 279.346 44.3325 279.346 43.7072V43.3992L277.568 43.6652C276.962 43.7678 276.658 44.0758 276.658 44.5892C276.658 44.8318 276.747 45.0418 276.924 45.2192C277.102 45.3872 277.344 45.4712 277.652 45.4712ZM284.529 42.6012V46.5352H282.905V39.7172H284.487V40.6272C284.702 40.2538 284.987 39.9785 285.341 39.8012C285.705 39.6145 286.093 39.5212 286.503 39.5212C287.306 39.5212 287.917 39.7732 288.337 40.2772C288.757 40.7812 288.967 41.4298 288.967 42.2232V46.5352H287.343V42.5032C287.343 42.0458 287.231 41.6818 287.007 41.4112C286.783 41.1312 286.429 40.9912 285.943 40.9912C285.495 40.9912 285.145 41.1452 284.893 41.4532C284.651 41.7518 284.529 42.1345 284.529 42.6012ZM293.913 41.0052C293.39 41.0052 292.947 41.1965 292.583 41.5792C292.219 41.9525 292.037 42.4658 292.037 43.1192C292.037 43.7818 292.219 44.3045 292.583 44.6872C292.956 45.0698 293.409 45.2612 293.941 45.2612C294.417 45.2612 294.795 45.1352 295.075 44.8832C295.364 44.6218 295.555 44.3278 295.649 44.0012L297.077 44.5192C296.89 45.1258 296.526 45.6485 295.985 46.0872C295.453 46.5258 294.771 46.7452 293.941 46.7452C292.942 46.7452 292.102 46.3998 291.421 45.7092C290.749 45.0185 290.413 44.1552 290.413 43.1192C290.413 42.0738 290.744 41.2105 291.407 40.5292C292.079 39.8478 292.909 39.5072 293.899 39.5072C294.748 39.5072 295.439 39.7265 295.971 40.1652C296.512 40.6038 296.862 41.1312 297.021 41.7472L295.565 42.2792C295.471 41.9245 295.289 41.6258 295.019 41.3832C294.757 41.1312 294.389 41.0052 293.913 41.0052ZM299.584 42.3772H302.93C302.912 41.9478 302.758 41.5885 302.468 41.2992C302.188 41.0098 301.782 40.8652 301.25 40.8652C300.765 40.8652 300.373 41.0192 300.074 41.3272C299.776 41.6258 299.612 41.9758 299.584 42.3772ZM303.112 44.1552L304.484 44.5892C304.288 45.2145 303.92 45.7325 303.378 46.1432C302.846 46.5445 302.188 46.7452 301.404 46.7452C300.434 46.7452 299.608 46.4138 298.926 45.7512C298.254 45.0885 297.918 44.2018 297.918 43.0912C297.918 42.0458 298.245 41.1872 298.898 40.5152C299.561 39.8432 300.34 39.5072 301.236 39.5072C302.282 39.5072 303.098 39.8292 303.686 40.4732C304.274 41.1078 304.568 41.9665 304.568 43.0492C304.568 43.3385 304.554 43.5112 304.526 43.5672H299.542C299.561 44.0805 299.748 44.5052 300.102 44.8412C300.466 45.1772 300.9 45.3452 301.404 45.3452C302.282 45.3452 302.851 44.9485 303.112 44.1552ZM309.173 44.6872C309.173 44.1085 309.36 43.6465 309.733 43.3012C310.116 42.9465 310.615 42.7225 311.231 42.6292L312.981 42.3632C313.317 42.3165 313.485 42.1532 313.485 41.8732C313.485 41.5652 313.378 41.3178 313.163 41.1312C312.948 40.9352 312.626 40.8372 312.197 40.8372C311.786 40.8372 311.46 40.9538 311.217 41.1872C310.974 41.4112 310.834 41.7052 310.797 42.0692L309.313 41.7332C309.378 41.1172 309.672 40.5945 310.195 40.1652C310.718 39.7265 311.38 39.5072 312.183 39.5072C313.172 39.5072 313.9 39.7452 314.367 40.2212C314.843 40.6972 315.081 41.3085 315.081 42.0552V45.4432C315.081 45.8912 315.109 46.2552 315.165 46.5352H313.653C313.606 46.3952 313.583 46.1058 313.583 45.6672C313.135 46.3858 312.435 46.7452 311.483 46.7452C310.792 46.7452 310.232 46.5445 309.803 46.1432C309.383 45.7325 309.173 45.2472 309.173 44.6872ZM311.791 45.4712C312.295 45.4712 312.701 45.3358 313.009 45.0652C313.326 44.7852 313.485 44.3325 313.485 43.7072V43.3992L311.707 43.6652C311.1 43.7678 310.797 44.0758 310.797 44.5892C310.797 44.8318 310.886 45.0418 311.063 45.2192C311.24 45.3872 311.483 45.4712 311.791 45.4712ZM316.54 46.9132L318.038 46.5212C318.094 46.9505 318.276 47.3005 318.584 47.5712C318.902 47.8512 319.289 47.9912 319.746 47.9912C321.034 47.9912 321.678 47.3098 321.678 45.9472V45.2332C321.52 45.5225 321.268 45.7605 320.922 45.9472C320.577 46.1338 320.171 46.2272 319.704 46.2272C318.79 46.2272 318.034 45.9145 317.436 45.2892C316.848 44.6638 316.554 43.8705 316.554 42.9092C316.554 41.9852 316.848 41.2012 317.436 40.5572C318.024 39.9132 318.78 39.5912 319.704 39.5912C320.703 39.5912 321.375 39.9225 321.72 40.5852V39.7172H323.288V45.8912C323.288 46.8992 323.004 47.7345 322.434 48.3972C321.865 49.0692 320.983 49.4052 319.788 49.4052C318.911 49.4052 318.174 49.1672 317.576 48.6912C316.979 48.2152 316.634 47.6225 316.54 46.9132ZM319.97 44.8412C320.493 44.8412 320.913 44.6685 321.23 44.3232C321.557 43.9685 321.72 43.4972 321.72 42.9092C321.72 42.3305 321.557 41.8685 321.23 41.5232C320.904 41.1685 320.484 40.9912 319.97 40.9912C319.448 40.9912 319.018 41.1685 318.682 41.5232C318.356 41.8685 318.192 42.3305 318.192 42.9092C318.192 43.4972 318.356 43.9685 318.682 44.3232C319.009 44.6685 319.438 44.8412 319.97 44.8412ZM329.265 39.6752V41.3272C329.078 41.2992 328.901 41.2852 328.733 41.2852C327.51 41.2852 326.899 41.9525 326.899 43.2872V46.5352H325.275V39.7172H326.857V40.8092C327.015 40.4452 327.272 40.1605 327.627 39.9552C327.981 39.7405 328.383 39.6332 328.831 39.6332C328.98 39.6332 329.125 39.6472 329.265 39.6752ZM331.686 42.3772H335.032C335.013 41.9478 334.859 41.5885 334.57 41.2992C334.29 41.0098 333.884 40.8652 333.352 40.8652C332.867 40.8652 332.475 41.0192 332.176 41.3272C331.877 41.6258 331.714 41.9758 331.686 42.3772ZM335.214 44.1552L336.586 44.5892C336.39 45.2145 336.021 45.7325 335.48 46.1432C334.948 46.5445 334.29 46.7452 333.506 46.7452C332.535 46.7452 331.709 46.4138 331.028 45.7512C330.356 45.0885 330.02 44.2018 330.02 43.0912C330.02 42.0458 330.347 41.1872 331 40.5152C331.663 39.8432 332.442 39.5072 333.338 39.5072C334.383 39.5072 335.2 39.8292 335.788 40.4732C336.376 41.1078 336.67 41.9665 336.67 43.0492C336.67 43.3385 336.656 43.5112 336.628 43.5672H331.644C331.663 44.0805 331.849 44.5052 332.204 44.8412C332.568 45.1772 333.002 45.3452 333.506 45.3452C334.383 45.3452 334.953 44.9485 335.214 44.1552ZM339.356 42.3772H342.702C342.683 41.9478 342.529 41.5885 342.24 41.2992C341.96 41.0098 341.554 40.8652 341.022 40.8652C340.537 40.8652 340.145 41.0192 339.846 41.3272C339.547 41.6258 339.384 41.9758 339.356 42.3772ZM342.884 44.1552L344.256 44.5892C344.06 45.2145 343.691 45.7325 343.15 46.1432C342.618 46.5445 341.96 46.7452 341.176 46.7452C340.205 46.7452 339.379 46.4138 338.698 45.7512C338.026 45.0885 337.69 44.2018 337.69 43.0912C337.69 42.0458 338.017 41.1872 338.67 40.5152C339.333 39.8432 340.112 39.5072 341.008 39.5072C342.053 39.5072 342.87 39.8292 343.458 40.4732C344.046 41.1078 344.34 41.9665 344.34 43.0492C344.34 43.3385 344.326 43.5112 344.298 43.5672H339.314C339.333 44.0805 339.519 44.5052 339.874 44.8412C340.238 45.1772 340.672 45.3452 341.176 45.3452C342.053 45.3452 342.623 44.9485 342.884 44.1552ZM347.502 46.5352H345.892V39.7172H347.446V40.5852C347.632 40.2492 347.912 39.9878 348.286 39.8012C348.668 39.6145 349.06 39.5212 349.462 39.5212C349.919 39.5212 350.33 39.6238 350.694 39.8292C351.058 40.0345 351.328 40.3332 351.506 40.7252C351.982 39.9225 352.719 39.5212 353.718 39.5212C354.39 39.5212 354.959 39.7405 355.426 40.1792C355.892 40.6178 356.126 41.2618 356.126 42.1112V46.5352H354.558V42.3772C354.558 41.9572 354.446 41.6212 354.222 41.3692C354.007 41.1078 353.68 40.9772 353.242 40.9772C352.822 40.9772 352.481 41.1218 352.22 41.4112C351.958 41.7005 351.828 42.0598 351.828 42.4892V46.5352H350.232V42.3772C350.232 41.9572 350.12 41.6212 349.896 41.3692C349.681 41.1078 349.354 40.9772 348.916 40.9772C348.486 40.9772 348.141 41.1218 347.88 41.4112C347.628 41.6912 347.502 42.0505 347.502 42.4892V46.5352ZM359.248 42.3772H362.594C362.576 41.9478 362.422 41.5885 362.132 41.2992C361.852 41.0098 361.446 40.8652 360.914 40.8652C360.429 40.8652 360.037 41.0192 359.738 41.3272C359.44 41.6258 359.276 41.9758 359.248 42.3772ZM362.776 44.1552L364.148 44.5892C363.952 45.2145 363.584 45.7325 363.042 46.1432C362.51 46.5445 361.852 46.7452 361.068 46.7452C360.098 46.7452 359.272 46.4138 358.59 45.7512C357.918 45.0885 357.582 44.2018 357.582 43.0912C357.582 42.0458 357.909 41.1872 358.562 40.5152C359.225 39.8432 360.004 39.5072 360.9 39.5072C361.946 39.5072 362.762 39.8292 363.35 40.4732C363.938 41.1078 364.232 41.9665 364.232 43.0492C364.232 43.3385 364.218 43.5112 364.19 43.5672H359.206C359.225 44.0805 359.412 44.5052 359.766 44.8412C360.13 45.1772 360.564 45.3452 361.068 45.3452C361.946 45.3452 362.515 44.9485 362.776 44.1552ZM367.408 42.6012V46.5352H365.784V39.7172H367.366V40.6272C367.581 40.2538 367.866 39.9785 368.22 39.8012C368.584 39.6145 368.972 39.5212 369.382 39.5212C370.185 39.5212 370.796 39.7732 371.216 40.2772C371.636 40.7812 371.846 41.4298 371.846 42.2232V46.5352H370.222V42.5032C370.222 42.0458 370.11 41.6818 369.886 41.4112C369.662 41.1312 369.308 40.9912 368.822 40.9912C368.374 40.9912 368.024 41.1452 367.772 41.4532C367.53 41.7518 367.408 42.1345 367.408 42.6012ZM375.881 37.6312V39.7172H377.295V41.1592H375.881V44.3232C375.881 44.6218 375.951 44.8412 376.091 44.9812C376.231 45.1118 376.451 45.1772 376.749 45.1772C376.936 45.1772 377.123 45.1585 377.309 45.1212V46.4652C377.067 46.5678 376.735 46.6192 376.315 46.6192C375.681 46.6192 375.181 46.4418 374.817 46.0872C374.453 45.7232 374.271 45.2238 374.271 44.5892V41.1592H373.011V39.7172H373.361C373.707 39.7172 373.968 39.6192 374.145 39.4232C374.323 39.2272 374.411 38.9705 374.411 38.6532V37.6312H375.881Z" fill="#222222"/>
<rect x="25.5" y="26.0352" width="31" height="31" rx="15.5" fill="#F3F3F3" stroke="#DDDDDD"/>
<rect x="0.5" y="1.03516" width="745" height="81" rx="1.5" stroke="#DDDDDD"/>
</svg>
